<svg width="11" height="11" viewBox="0 0 11 11" fill="none" xmlns="http://www.w3.org/2000/svg">
<path d="M5.5 10C7.98528 10 10 7.98528 10 5.5C10 3.01472 7.98528 1 5.5 1C3.01472 1 1 3.01472 1 5.5C1 7.98528 3.01472 10 5.5 10Z" stroke="#3AC0E5" stroke-width="2" stroke-miterlimit="10"/>
<path d="M8.11307 3.89679C7.93468 3.73525 7.69427 3.64547 7.44439 3.64709C7.19451 3.6487 6.95547 3.74158 6.77954 3.90541L5.286 5.30395L4.75259 4.79058C4.66601 4.70776 4.5625 4.64161 4.44805 4.59596C4.3336 4.55032 4.21048 4.52608 4.08582 4.52465H4.07648C3.82777 4.52245 3.58816 4.61093 3.40971 4.77088L3.39905 4.78073C3.22116 4.94372 3.12005 5.1649 3.11768 5.39628C3.11749 5.51083 3.14203 5.62427 3.18989 5.72997C3.23774 5.83566 3.30794 5.93148 3.39638 6.01183L4.54188 7.06813C4.73966 7.25051 5.00779 7.35295 5.28733 7.35295C5.56688 7.35295 5.83499 7.25051 6.03277 7.06813L8.13575 5.12544C8.22371 5.04488 8.29342 4.94896 8.34081 4.84328C8.3882 4.7376 8.41232 4.62426 8.41178 4.50988C8.40814 4.39457 8.37989 4.28106 8.32863 4.17585C8.27737 4.07064 8.20412 3.97581 8.11307 3.89679Z" fill="#3AC0E5"/>
</svg>
