<svg width="32" height="30" viewBox="0 0 32 30" fill="none" xmlns="http://www.w3.org/2000/svg">
<path fill-rule="evenodd" clip-rule="evenodd" d="M6.02003 3.74178C5.28085 3.3755 4.77644 3.38487 4.4707 3.48983C4.12306 3.60916 3.73423 3.95505 3.47672 4.75211C2.94772 6.38949 3.19786 9.38024 5.00619 12.9969C5.28405 13.5526 5.0588 14.2284 4.50307 14.5062C3.94735 14.7841 3.27159 14.5588 2.99372 14.0031C1.05205 10.1198 0.552189 6.48551 1.33569 4.06039C1.73443 2.82619 2.51747 1.78145 3.74015 1.36173C4.59119 1.06958 5.50488 1.13232 6.42087 1.46859C6.89236 0.801704 7.67838 0.375 8.54783 0.375H23.4521C24.3215 0.375 25.1075 0.801704 25.579 1.46859C26.495 1.13232 27.4087 1.06958 28.2598 1.36173C29.4824 1.78145 30.2655 2.82619 30.6642 4.06039C31.4477 6.48551 30.9479 10.1198 29.0062 14.0031C28.7283 14.5588 28.0526 14.7841 27.4968 14.5062C26.9411 14.2284 26.7159 13.5526 26.9937 12.9969C28.802 9.38024 29.0522 6.38949 28.5232 4.75211C28.2657 3.95505 27.8768 3.60916 27.5292 3.48983C27.2235 3.38487 26.7191 3.3755 25.9799 3.74178C25.7651 6.20338 25.2416 10.3851 23.993 14.1019C23.3136 16.1239 22.3931 18.0912 21.1265 19.5716C19.841 21.0742 18.1485 22.125 16 22.125C13.8514 22.125 12.1589 21.0742 10.8734 19.5716C9.60682 18.0912 8.68627 16.1239 8.00695 14.1019C6.75826 10.3851 6.23477 6.20338 6.02003 3.74178ZM8.2128 2.95021C8.20089 2.79384 8.32033 2.625 8.54783 2.625H23.4521C23.6796 2.625 23.799 2.79384 23.7871 2.95021C23.6138 5.22579 23.1303 9.60468 21.8601 13.3853C21.2239 15.2791 20.4169 16.9401 19.4169 18.1089C18.4359 19.2555 17.3229 19.875 16 19.875C14.677 19.875 13.564 19.2555 12.583 18.1089C11.5831 16.9401 10.776 15.2791 10.1398 13.3853C8.86965 9.60468 8.38612 5.22579 8.2128 2.95021Z" fill="white"/>
<path fill-rule="evenodd" clip-rule="evenodd" d="M19.9007 23.8054C19.1155 22.753 17.8083 22.5795 16.8353 22.7882C16.5719 22.8447 16.2941 22.875 16 22.875C15.7058 22.875 15.428 22.8447 15.1646 22.7882C14.1916 22.5795 12.8844 22.753 12.0992 23.8054L10.8868 25.4302C9.59502 27.1615 10.8306 29.625 12.9907 29.625H19.0092C21.1693 29.625 22.4049 27.1615 21.1131 25.4302L19.9007 23.8054ZM17.3071 24.9882C17.5061 24.9455 17.6943 24.9525 17.8384 24.9924C17.9759 25.0305 18.0524 25.0906 18.0974 25.1509L19.3098 26.7757C19.4943 27.0231 19.3178 27.375 19.0092 27.375H12.9907C12.6821 27.375 12.5056 27.0231 12.6902 26.7757L13.9025 25.1509C13.9475 25.0906 14.024 25.0305 14.1615 24.9924C14.3056 24.9525 14.4938 24.9455 14.6928 24.9882C15.1138 25.0785 15.5498 25.125 16 25.125C16.4501 25.125 16.8861 25.0785 17.3071 24.9882Z" fill="white"/>
</svg>
