<svg width="20" height="20" viewBox="0 0 20 20" fill="none" xmlns="http://www.w3.org/2000/svg">
<path fill-rule="evenodd" clip-rule="evenodd" d="M8.5 10C11.2614 10 13.5 7.76142 13.5 5C13.5 2.23858 11.2614 0 8.5 0C5.73858 0 3.5 2.23858 3.5 5C3.5 7.76142 5.73858 10 8.5 10ZM8.5 8.5C10.433 8.5 12 6.933 12 5C12 3.067 10.433 1.5 8.5 1.5C6.567 1.5 5 3.067 5 5C5 6.933 6.567 8.5 8.5 8.5Z" fill="white"/>
<path d="M19.0303 7.46967C19.3232 7.76256 19.3232 8.23744 19.0303 8.53033L16.0541 11.5065C15.7684 11.7922 15.3078 11.8003 15.0123 11.5247L13.4885 10.1036C13.1856 9.8211 13.169 9.34652 13.4515 9.04359C13.734 8.74066 14.2086 8.72411 14.5115 9.00661L15.5056 9.93371L17.9697 7.46967C18.2626 7.17678 18.7374 7.17678 19.0303 7.46967Z" fill="white"/>
<path fill-rule="evenodd" clip-rule="evenodd" d="M16.5 15.5C16.5 17.9853 12.9183 20 8.5 20C4.08172 20 0.5 17.9853 0.5 15.5C0.5 13.0147 4.08172 11 8.5 11C12.9183 11 16.5 13.0147 16.5 15.5ZM15 15.5C15 15.96 14.6527 16.6821 13.4215 17.3746C12.2373 18.0407 10.5003 18.5 8.5 18.5C6.49969 18.5 4.76273 18.0407 3.57854 17.3746C2.34733 16.6821 2 15.96 2 15.5C2 15.04 2.34733 14.3179 3.57854 13.6254C4.76273 12.9593 6.49969 12.5 8.5 12.5C10.5003 12.5 12.2373 12.9593 13.4215 13.6254C14.6527 14.3179 15 15.04 15 15.5Z" fill="white"/>
</svg>
