<svg width="16" height="15" viewBox="0 0 16 15" fill="none" xmlns="http://www.w3.org/2000/svg">
<path fill-rule="evenodd" clip-rule="evenodd" d="M11 3C11.5625 3 11.5625 2.99962 11.5625 2.99924L11.5625 2.99843L11.5625 2.99664L11.5625 2.99242L11.5623 2.98145C11.5621 2.97304 11.5618 2.96242 11.5612 2.94976C11.5601 2.92444 11.558 2.89079 11.5541 2.84999C11.5464 2.76858 11.5314 2.65748 11.5022 2.52641C11.4443 2.26572 11.3281 1.91562 11.093 1.56298C10.601 0.824866 9.66386 0.1875 8 0.1875C6.33614 0.1875 5.39905 0.824866 4.90698 1.56298C4.67188 1.91562 4.55571 2.26572 4.49777 2.52641C4.46865 2.65748 4.45365 2.76858 4.4459 2.84999C4.44201 2.89079 4.43992 2.92444 4.43879 2.94976C4.43823 2.96242 4.43791 2.97304 4.43773 2.98145L4.43755 2.99242L4.43751 2.99664L4.43751 2.99843L4.4375 2.99924C4.4375 2.99962 4.4375 3 5 3H3.37883C2.15038 3 1.10198 3.88813 0.900026 5.09986C0.677044 6.43776 1.55598 7.7112 2.88599 7.9772L7.41165 8.88233C7.80004 8.96001 8.19997 8.96001 8.58835 8.88233L13.114 7.9772C14.444 7.7112 15.323 6.43776 15.1 5.09986C14.898 3.88813 13.8496 3 12.6212 3H11ZM10.4373 3H5.56267C5.56301 2.99236 5.56386 2.97737 5.56583 2.95665C5.56979 2.91501 5.57824 2.85033 5.59598 2.77046C5.6318 2.60928 5.70313 2.39688 5.84303 2.18702C6.10096 1.80013 6.66386 1.3125 8 1.3125C9.33614 1.3125 9.89905 1.80013 10.157 2.18702C10.2969 2.39688 10.3682 2.60928 10.404 2.77046C10.4218 2.85033 10.4302 2.91501 10.4342 2.95665C10.4362 2.97737 10.437 2.99236 10.4373 3ZM7.63229 7.77918L3.10662 6.87405C2.37202 6.72712 1.88656 6.02377 2.00972 5.28481C2.12127 4.61554 2.70033 4.125 3.37883 4.125H12.6212C13.2997 4.125 13.8787 4.61554 13.9903 5.28481C14.1134 6.02377 13.628 6.72712 12.8934 6.87405L8.36772 7.77918C8.12498 7.82773 7.87503 7.82773 7.63229 7.77918Z" fill="#363538"/>
<path d="M8.5625 9.75C8.5625 9.43934 8.31066 9.1875 8 9.1875C7.68934 9.1875 7.4375 9.43934 7.4375 9.75V11.25C7.4375 11.5607 7.68934 11.8125 8 11.8125C8.31066 11.8125 8.5625 11.5607 8.5625 11.25V9.75Z" fill="#363538"/>
<path d="M14.5568 9.07955C14.6008 8.77201 14.3871 8.48709 14.0796 8.44315C13.772 8.39922 13.4871 8.61291 13.4432 8.92045L13.0611 11.5947C12.8896 12.7955 11.8611 13.6875 10.6481 13.6875H5.35189C4.13887 13.6875 3.11044 12.7955 2.93889 11.5947L2.55685 8.92045C2.51292 8.61291 2.22799 8.39922 1.92045 8.44315C1.61292 8.48709 1.39922 8.77201 1.44316 9.07955L1.8252 11.7538C2.07592 13.5089 3.57901 14.8125 5.35189 14.8125H10.6481C12.421 14.8125 13.9241 13.5089 14.1748 11.7538L14.5568 9.07955Z" fill="#363538"/>
</svg>
