<svg width="117" height="118" viewBox="0 0 117 118" fill="none" xmlns="http://www.w3.org/2000/svg">
<rect x="15" y="15" width="87" height="88" rx="43.5" fill="#E6007E"/>
<rect x="7.5" y="7.5" width="102" height="103" rx="51" stroke="#E6007E" stroke-opacity="0.1" stroke-width="15" stroke-linecap="round"/>
<path d="M49.3333 41.125C44.5239 41.125 40.625 45.0239 40.625 49.8333V68.1667C40.625 72.9761 44.5239 76.875 49.3333 76.875H53C56.797 76.875 59.875 73.797 59.875 70C59.875 69.2406 59.2594 68.625 58.5 68.625C57.7406 68.625 57.125 69.2406 57.125 70C57.125 72.2782 55.2782 74.125 53 74.125H49.3333C46.0426 74.125 43.375 71.4574 43.375 68.1667V49.8333C43.375 46.5426 46.0426 43.875 49.3333 43.875H53C55.2782 43.875 57.125 45.7218 57.125 48C57.125 48.7594 57.7406 49.375 58.5 49.375C59.2594 49.375 59.875 48.7594 59.875 48C59.875 44.203 56.797 41.125 53 41.125H49.3333Z" fill="white"/>
<path d="M72.3056 54.3611C71.7686 53.8241 70.898 53.8241 70.3611 54.3611C69.8241 54.898 69.8241 55.7686 70.3611 56.3056L71.6805 57.625H56.6667C55.9073 57.625 55.2917 58.2406 55.2917 59C55.2917 59.7594 55.9073 60.375 56.6667 60.375H71.6805L70.3611 61.6944C69.8241 62.2314 69.8241 63.102 70.3611 63.6389C70.898 64.1759 71.7686 64.1759 72.3056 63.6389L75.9723 59.9723C76.2301 59.7144 76.375 59.3647 76.375 59C76.375 58.6353 76.2301 58.2856 75.9723 58.0277L72.3056 54.3611Z" fill="white"/>
</svg>
