<svg width="16" height="17" viewBox="0 0 16 17" fill="none" xmlns="http://www.w3.org/2000/svg">
<path fill-rule="evenodd" clip-rule="evenodd" d="M11.1667 7.70834C11.1667 9.45725 9.7489 10.875 8 10.875C6.2511 10.875 4.83333 9.45725 4.83333 7.70834C4.83333 5.95944 6.2511 4.54168 8 4.54168C9.7489 4.54168 11.1667 5.95944 11.1667 7.70834ZM9.97917 7.70834C9.97917 8.80141 9.09306 9.68751 8 9.68751C6.90694 9.68751 6.02083 8.80141 6.02083 7.70834C6.02083 6.61528 6.90694 5.72918 8 5.72918C9.09306 5.72918 9.97917 6.61528 9.97917 7.70834Z" fill="#363538"/>
<path fill-rule="evenodd" clip-rule="evenodd" d="M6.83495 15.9035C3.5209 14.24 1.23053 11.2428 0.875 7.70834C0.875 3.77331 4.06497 0.583344 8 0.583344C11.935 0.583344 15.125 3.77331 15.125 7.70834C14.7723 11.215 12.2192 14.1928 9.14644 15.864C8.42866 16.2544 7.56519 16.2701 6.83495 15.9035ZM8.57905 14.8209C8.20146 15.0262 7.74892 15.0336 7.3677 14.8423C4.38283 13.3439 2.39175 10.6978 2.06279 7.64943C2.0944 4.39737 4.74047 1.77084 8 1.77084C11.2594 1.77084 13.9054 4.39719 13.9372 7.6491C13.6119 10.6285 11.4008 13.2861 8.57905 14.8209Z" fill="#363538"/>
</svg>
