<svg width="16" height="20" viewBox="0 0 16 20" fill="none" xmlns="http://www.w3.org/2000/svg">
<path fill-rule="evenodd" clip-rule="evenodd" d="M7.03351 9.34612C7.50814 8.68497 8.49163 8.68497 8.96627 9.34612C9.16564 9.62382 9.47484 9.80234 9.81502 9.83614C10.6249 9.91662 11.1167 10.7683 10.7814 11.51C10.6406 11.8215 10.6406 12.1785 10.7814 12.49C11.1167 13.2316 10.6249 14.0834 9.81502 14.1638C9.47484 14.1976 9.16564 14.3762 8.96627 14.6539C8.49163 15.315 7.50814 15.315 7.03351 14.6539C6.83414 14.3762 6.52494 14.1976 6.18475 14.1638C5.37487 14.0834 4.88312 13.2316 5.21837 12.49C5.35919 12.1785 5.35919 11.8215 5.21837 11.51C4.88312 10.7683 5.37487 9.91662 6.18475 9.83614C6.52494 9.80234 6.83414 9.62382 7.03351 9.34612ZM6.7206 12.7386C6.85845 12.256 6.85845 11.744 6.7206 11.2614C7.20749 11.1395 7.65085 10.8835 7.99989 10.5228C8.34893 10.8835 8.79229 11.1395 9.27917 11.2614C9.14133 11.744 9.14133 12.256 9.27917 12.7386C8.79229 12.8605 8.34893 13.1165 7.99989 13.4772C7.65085 13.1165 7.20749 12.8605 6.7206 12.7386Z" fill="white"/>
<path fill-rule="evenodd" clip-rule="evenodd" d="M3.24989 3.4164V6.57192C3.10059 6.78694 2.99197 7.03486 2.93691 7.30631C2.82293 7.86831 2.47065 8.35318 1.97138 8.63525C1.07766 9.14017 0.718725 10.2449 1.14498 11.1787C1.3831 11.7003 1.3831 12.2997 1.14498 12.8213C0.718725 13.7551 1.07766 14.8598 1.97138 15.3647C2.47065 15.6468 2.82293 16.1317 2.93691 16.6937C3.14095 17.6997 4.08065 18.3824 5.10047 18.2656C5.67019 18.2003 6.24019 18.3855 6.66274 18.7732C7.41912 19.4672 8.58066 19.4672 9.33704 18.7732C9.75959 18.3855 10.3296 18.2003 10.8993 18.2656C11.9191 18.3824 12.8588 17.6997 13.0629 16.6937C13.1768 16.1317 13.5291 15.6468 14.0284 15.3647C14.9221 14.8598 15.2811 13.7551 14.8548 12.8213C14.6167 12.2997 14.6167 11.7003 14.8548 11.1787C15.2811 10.2449 14.9221 9.14017 14.0284 8.63525C13.5291 8.35318 13.1768 7.86831 13.0629 7.30631C13.0078 7.03486 12.8992 6.78694 12.7499 6.57192V3.4164C12.7499 1.28925 10.5113 -0.0942547 8.60875 0.857038C8.22546 1.04868 7.77431 1.04868 7.39103 0.857038C5.48844 -0.094255 3.24989 1.28925 3.24989 3.4164ZM6.72021 2.19868C5.81497 1.74606 4.74989 2.40432 4.74989 3.4164V5.72527C4.86499 5.71805 4.98219 5.72084 5.10047 5.73439C5.67019 5.79966 6.24019 5.61445 6.66274 5.22678C7.41912 4.53283 8.58066 4.53283 9.33704 5.22678C9.75959 5.61445 10.3296 5.79966 10.8993 5.73439C11.0176 5.72084 11.1348 5.71805 11.2499 5.72527V3.4164C11.2499 2.40432 10.1848 1.74606 9.27957 2.19868C8.47399 2.60147 7.52578 2.60147 6.72021 2.19868ZM4.70638 7.25234C4.64968 7.41106 4.54102 7.54508 4.40088 7.63391C4.19421 8.6096 3.57839 9.45018 2.70921 9.94124C2.49327 10.0632 2.40654 10.3302 2.50954 10.5558C2.92825 11.4731 2.92825 12.5269 2.50954 13.4442C2.40654 13.6698 2.49327 13.9368 2.70921 14.0588C3.58712 14.5547 4.20656 15.4073 4.40699 16.3955C4.45628 16.6386 4.68334 16.8036 4.92975 16.7753C5.93153 16.6606 6.9338 16.9862 7.6768 17.6679C7.85956 17.8356 8.14022 17.8356 8.32298 17.6679C9.06598 16.9862 10.0682 16.6606 11.07 16.7753C11.3164 16.8036 11.5435 16.6386 11.5928 16.3955C11.7932 15.4073 12.4127 14.5547 13.2906 14.0588C13.5065 13.9368 13.5932 13.6698 13.4902 13.4442C13.0715 12.5269 13.0715 11.4731 13.4902 10.5558C13.5932 10.3302 13.5065 10.0632 13.2906 9.94124C12.4214 9.45018 11.8056 8.6096 11.5989 7.63391C11.4588 7.54508 11.3501 7.41106 11.2934 7.25234C11.2242 7.22615 11.1481 7.2157 11.07 7.22464C10.0682 7.33941 9.06598 7.01375 8.32298 6.33207C8.14022 6.1644 7.85956 6.1644 7.6768 6.33207C6.9338 7.01375 5.93153 7.33941 4.92975 7.22464C4.85167 7.2157 4.77553 7.22615 4.70638 7.25234Z" fill="white"/>
</svg>
