<svg width="30" height="30" viewBox="0 0 30 30" fill="none" xmlns="http://www.w3.org/2000/svg">
<path fill-rule="evenodd" clip-rule="evenodd" d="M9 0H6C2.68629 0 0 2.68629 0 6V10.5C0 13.8137 2.68629 16.5 6 16.5H9C12.3137 16.5 15 13.8137 15 10.5V6C15 2.68629 12.3137 0 9 0ZM6 2.25H9C11.0711 2.25 12.75 3.92893 12.75 6V10.5C12.75 12.5711 11.0711 14.25 9 14.25H6C3.92893 14.25 2.25 12.5711 2.25 10.5V6C2.25 3.92893 3.92893 2.25 6 2.25Z" fill="white"/>
<path fill-rule="evenodd" clip-rule="evenodd" d="M24 0H22.5C19.1863 0 16.5 2.68629 16.5 6C16.5 9.31371 19.1863 12 22.5 12H24C27.3137 12 30 9.31371 30 6C30 2.68629 27.3137 0 24 0ZM22.5 2.25H24C26.0711 2.25 27.75 3.92893 27.75 6C27.75 8.07107 26.0711 9.75 24 9.75H22.5C20.4289 9.75 18.75 8.07107 18.75 6C18.75 3.92893 20.4289 2.25 22.5 2.25Z" fill="white"/>
<path fill-rule="evenodd" clip-rule="evenodd" d="M21 13.5H24C27.3137 13.5 30 16.1863 30 19.5V24C30 27.3137 27.3137 30 24 30H21C17.6863 30 15 27.3137 15 24V19.5C15 16.1863 17.6863 13.5 21 13.5ZM21 15.75C18.9289 15.75 17.25 17.4289 17.25 19.5V24C17.25 26.0711 18.9289 27.75 21 27.75H24C26.0711 27.75 27.75 26.0711 27.75 24V19.5C27.75 17.4289 26.0711 15.75 24 15.75H21Z" fill="white"/>
<path fill-rule="evenodd" clip-rule="evenodd" d="M7.5 18H6C2.68629 18 0 20.6863 0 24C0 27.3137 2.68629 30 6 30H7.5C10.8137 30 13.5 27.3137 13.5 24C13.5 20.6863 10.8137 18 7.5 18ZM6 20.25H7.5C9.57107 20.25 11.25 21.9289 11.25 24C11.25 26.0711 9.57107 27.75 7.5 27.75H6C3.92893 27.75 2.25 26.0711 2.25 24C2.25 21.9289 3.92893 20.25 6 20.25Z" fill="white"/>
</svg>
