<svg width="30" height="29" viewBox="0 0 30 29" fill="none" xmlns="http://www.w3.org/2000/svg">
<path fill-rule="evenodd" clip-rule="evenodd" d="M5.0616 5.37497C4.67302 4.21258 4.86167 2.76309 5.93558 1.74156C7.01913 0.710863 8.63943 0.580296 9.86278 1.45305L13.9478 4.36736C14.5924 4.82722 15.4076 4.82722 16.0522 4.36736L20.1372 1.45305C21.3606 0.580298 22.9809 0.710862 24.0644 1.74156C25.1383 2.76309 25.327 4.21258 24.9384 5.37497H27C28.4497 5.37497 29.625 6.55022 29.625 7.99997V11C29.625 12.3224 28.6471 13.4164 27.375 13.5984V23C27.375 26.1066 24.8566 28.625 21.75 28.625H8.25C5.1434 28.625 2.625 26.1066 2.625 23V13.5984C1.35289 13.4164 0.375 12.3224 0.375 11V7.99997C0.375 6.55022 1.55025 5.37497 3 5.37497H5.0616ZM7.48631 3.37181C7.80184 3.07168 8.22514 3.04863 8.55605 3.2847L11.486 5.37497H8.07386C7.6935 5.37497 7.35827 5.13269 7.19968 4.67386C7.04013 4.21224 7.13245 3.70842 7.48631 3.37181ZM3 7.62497C2.79289 7.62497 2.625 7.79286 2.625 7.99997V11C2.625 11.2071 2.79289 11.375 3 11.375H27C27.2071 11.375 27.375 11.2071 27.375 11V7.99997C27.375 7.79286 27.2071 7.62497 27 7.62497H3ZM21.9261 5.37497C22.3065 5.37497 22.6417 5.13269 22.8003 4.67386C22.9599 4.21224 22.8675 3.70842 22.5137 3.37181C22.1982 3.07168 21.7749 3.04863 21.444 3.28471L18.514 5.37497H21.9261ZM4.875 23V13.625H8.8319V17.3011C8.8319 19.2272 10.8347 20.4772 12.5633 19.6815C13.857 19.086 15.3671 19.086 16.6609 19.6815C18.3894 20.4772 20.3922 19.2272 20.3922 17.3011V13.625H25.125V23C25.125 24.8639 23.614 26.375 21.75 26.375H8.25C6.38604 26.375 4.875 24.8639 4.875 23ZM11.0819 17.3011V13.625H18.1422V17.3011C18.1422 17.563 17.8607 17.7569 17.6017 17.6377C15.7108 16.7673 13.5133 16.7673 11.6225 17.6377C11.3634 17.7569 11.0819 17.563 11.0819 17.3011Z" fill="white"/>
</svg>
