<svg width="21" height="20" viewBox="0 0 21 20" fill="none" xmlns="http://www.w3.org/2000/svg">
<path d="M11.35 10.5C11.35 10.0858 11.0142 9.75 10.6 9.75C10.1858 9.75 9.84998 10.0858 9.84998 10.5V14.5C9.84998 14.9142 10.1858 15.25 10.6 15.25C11.0142 15.25 11.35 14.9142 11.35 14.5V10.5Z" fill="white"/>
<path fill-rule="evenodd" clip-rule="evenodd" d="M2.43259 6.0339L8.10118 1.49902C9.56206 0.330322 11.6379 0.330323 13.0987 1.49902L18.7673 6.0339C19.8989 6.93914 20.4524 8.38559 20.2141 9.81497L19.157 16.1576C18.8356 18.0863 17.1668 19.5 15.2115 19.5H5.98847C4.03311 19.5 2.36435 18.0863 2.04289 16.1576L0.985789 9.81497C0.747559 8.38559 1.30103 6.93914 2.43259 6.0339ZM3.36963 7.2052L9.03822 2.67033C9.95127 1.93989 11.2487 1.93989 12.1617 2.67033L17.8303 7.2052C18.5375 7.77098 18.8834 8.67501 18.7345 9.56837L17.6774 15.911C17.4765 17.1165 16.4335 18 15.2115 18H5.98847C4.76637 18 3.7234 17.1165 3.52248 15.911L2.46538 9.56837C2.31649 8.67501 2.66241 7.77098 3.36963 7.2052Z" fill="white"/>
</svg>
