<svg width="20" height="20" viewBox="0 0 20 20" fill="none" xmlns="http://www.w3.org/2000/svg">
<path fill-rule="evenodd" clip-rule="evenodd" d="M3.57435 3.75C3.3153 2.97507 3.44106 2.00875 4.15701 1.32773C4.87937 0.640596 5.95957 0.553551 6.77514 1.13539L9.49848 3.07826C9.9282 3.38483 10.4717 3.38483 10.9014 3.07826L13.6248 1.13539C14.4403 0.553552 15.5205 0.640595 16.2429 1.32773C16.9588 2.00875 17.0846 2.97507 16.8256 3.75H18.2C19.1664 3.75 19.95 4.5335 19.95 5.5V7.5C19.95 8.38162 19.298 9.11097 18.45 9.23228V15.5C18.45 17.5711 16.771 19.25 14.7 19.25H5.69995C3.62888 19.25 1.94995 17.5711 1.94995 15.5V9.23228C1.10188 9.11097 0.449951 8.38162 0.449951 7.5V5.5C0.449951 4.5335 1.23345 3.75 2.19995 3.75H3.57435ZM5.19083 2.41456C5.40118 2.21447 5.68338 2.19911 5.90398 2.35649L7.85728 3.75H5.58252C5.32895 3.75 5.10546 3.58848 4.99974 3.28259C4.89337 2.97485 4.95492 2.63896 5.19083 2.41456ZM2.19995 5.25C2.06188 5.25 1.94995 5.36193 1.94995 5.5V7.5C1.94995 7.63807 2.06188 7.75 2.19995 7.75H18.2C18.338 7.75 18.45 7.63807 18.45 7.5V5.5C18.45 5.36193 18.338 5.25 18.2 5.25H2.19995ZM14.8174 3.75C15.071 3.75 15.2944 3.58848 15.4002 3.28259C15.5065 2.97485 15.445 2.63896 15.2091 2.41456C14.9987 2.21447 14.7165 2.19911 14.4959 2.35649L12.5426 3.75H14.8174ZM3.44995 15.5V9.25H6.08788V11.7007C6.08788 12.9848 7.4231 13.8182 8.57547 13.2877C9.43796 12.8907 10.4447 12.8907 11.3072 13.2877C12.4596 13.8182 13.7948 12.9848 13.7948 11.7007V9.25H16.95V15.5C16.95 16.7426 15.9426 17.75 14.7 17.75H5.69995C4.45731 17.75 3.44995 16.7426 3.44995 15.5ZM7.58788 11.7007V9.25H12.2948V11.7007C12.2948 11.8753 12.1071 12.0046 11.9344 11.9251C10.6738 11.3449 9.20881 11.3449 7.94826 11.9251C7.77557 12.0046 7.58788 11.8753 7.58788 11.7007Z" fill="white"/>
</svg>
