<svg width="22" height="25" viewBox="0 0 22 25" fill="none" xmlns="http://www.w3.org/2000/svg">
<path fill-rule="evenodd" clip-rule="evenodd" d="M9.16068 1.51109C5.23373 2.4789 2.32146 6.02471 2.32146 10.2504V11.875C2.32146 14.0814 1.63455 16.8453 0.970789 19.0011C0.449086 20.6954 1.68543 22.5 3.45829 22.5H8.50003C8.50003 22.8283 8.56469 23.1534 8.69033 23.4567C8.81596 23.76 9.00011 24.0356 9.23226 24.2678C9.46441 24.4999 9.74 24.6841 10.0433 24.8097C10.3466 24.9353 10.6717 25 11 25C11.3283 25 11.6534 24.9353 11.9567 24.8097C12.26 24.6841 12.5356 24.4999 12.7678 24.2678C12.9999 24.0356 13.1841 23.76 13.3097 23.4567C13.4354 23.1534 13.5 22.8283 13.5 22.5H18.8868C20.5624 22.5 21.7793 20.8799 21.3964 19.2487C20.8803 17.0502 20.3215 14.1452 20.3215 11.875V10.2504C20.3215 5.78562 17.0703 2.07984 12.8063 1.37192C12.786 1.29916 12.7613 1.22754 12.7323 1.15747C12.6381 0.929983 12.5 0.723285 12.3259 0.549175C12.1517 0.375065 11.945 0.236953 11.7176 0.142726C11.4901 0.0484981 11.2463 0 11 0C10.7538 0 10.51 0.0484984 10.2825 0.142726C10.055 0.236953 9.84831 0.375065 9.6742 0.549175C9.50009 0.723285 9.36198 0.929983 9.26775 1.15747C9.22039 1.27181 9.18459 1.39027 9.16068 1.51109ZM4.19646 10.2504V11.875C4.19646 14.3801 3.43437 17.3716 2.76277 19.5528C2.68369 19.8097 2.73333 20.0873 2.88859 20.3085C3.03932 20.5231 3.24328 20.625 3.45829 20.625H18.8868C19.2853 20.625 19.6935 20.1992 19.571 19.6771C19.0508 17.4609 18.4465 14.3765 18.4465 11.875V10.2504C18.4465 6.31528 15.2564 3.125 11.3215 3.125C7.38654 3.125 4.19646 6.31528 4.19646 10.2504Z" fill="white"/>
</svg>
