<svg width="18" height="17" viewBox="0 0 18 17" fill="none" xmlns="http://www.w3.org/2000/svg">
<path d="M9 0.580887C7.39303 0.580887 5.82214 1.05741 4.486 1.9502C3.14985 2.84298 2.10844 4.11193 1.49348 5.59658C0.87852 7.08123 0.717618 8.7149 1.03112 10.291C1.34463 11.8671 2.11846 13.3148 3.25476 14.4511C4.39106 15.5874 5.8388 16.3613 7.4149 16.6748C8.99099 16.9883 10.6247 16.8274 12.1093 16.2124C13.594 15.5974 14.8629 14.556 15.7557 13.2199C16.6485 11.8837 17.125 10.3129 17.125 8.70589C17.1227 6.5517 16.266 4.4864 14.7427 2.96316C13.2195 1.43992 11.1542 0.583162 9 0.580887ZM9 13.7059C8.81458 13.7059 8.63333 13.6509 8.47916 13.5479C8.32499 13.4449 8.20482 13.2985 8.13387 13.1272C8.06291 12.9558 8.04434 12.7673 8.08052 12.5855C8.11669 12.4036 8.20598 12.2366 8.33709 12.1055C8.4682 11.9744 8.63525 11.8851 8.81711 11.8489C8.99896 11.8127 9.18746 11.8313 9.35877 11.9023C9.53007 11.9732 9.67649 12.0934 9.77951 12.2475C9.88252 12.4017 9.9375 12.583 9.9375 12.7684C9.9375 13.017 9.83873 13.2555 9.66292 13.4313C9.4871 13.6071 9.24864 13.7059 9 13.7059ZM9.625 9.89964V9.95589C9.625 10.1216 9.55916 10.2806 9.44195 10.3978C9.32474 10.515 9.16576 10.5809 9 10.5809C8.83424 10.5809 8.67527 10.515 8.55806 10.3978C8.44085 10.2806 8.375 10.1216 8.375 9.95589V9.33089C8.375 9.16513 8.44085 9.00616 8.55806 8.88894C8.67527 8.77173 8.83424 8.70589 9 8.70589C10.0336 8.70589 10.875 8.00276 10.875 7.14339C10.875 6.28401 10.0336 5.58089 9 5.58089C7.96641 5.58089 7.125 6.28401 7.125 7.14339V7.45589C7.125 7.62165 7.05916 7.78062 6.94195 7.89783C6.82474 8.01504 6.66576 8.08089 6.5 8.08089C6.33424 8.08089 6.17527 8.01504 6.05806 7.89783C5.94085 7.78062 5.875 7.62165 5.875 7.45589V7.14339C5.875 5.59261 7.27657 4.33089 9 4.33089C10.7234 4.33089 12.125 5.59261 12.125 7.14339C12.125 8.5012 11.05 9.63792 9.625 9.89964Z" fill="white"/>
</svg>
