<svg width="30" height="28" viewBox="0 0 30 28" fill="none" xmlns="http://www.w3.org/2000/svg">
<path fill-rule="evenodd" clip-rule="evenodd" d="M21.75 7.25C21.75 10.9779 18.7279 14 15 14C11.272 14 8.24995 10.9779 8.24995 7.25C8.24995 3.52208 11.272 0.5 15 0.5C18.7279 0.5 21.75 3.52208 21.75 7.25ZM19.5 7.25C19.5 9.73528 17.4852 11.75 15 11.75C12.5147 11.75 10.5 9.73528 10.5 7.25C10.5 4.76472 12.5147 2.75 15 2.75C17.4852 2.75 19.5 4.76472 19.5 7.25Z" fill="white"/>
<path fill-rule="evenodd" clip-rule="evenodd" d="M25.7999 21.425C25.7999 24.7801 20.9646 27.5 15 27.5C9.03528 27.5 4.19995 24.7801 4.19995 21.425C4.19995 18.0699 9.03528 15.35 15 15.35C20.9646 15.35 25.7999 18.0699 25.7999 21.425ZM23.5499 21.425C23.5499 21.9287 23.1633 22.8429 21.5336 23.7596C19.9745 24.6366 17.6691 25.25 15 25.25C12.3308 25.25 10.0254 24.6366 8.46629 23.7596C6.83663 22.8429 6.44995 21.9287 6.44995 21.425C6.44995 20.9213 6.83663 20.007 8.46629 19.0904C10.0254 18.2133 12.3308 17.6 15 17.6C17.6691 17.6 19.9745 18.2133 21.5336 19.0904C23.1633 20.007 23.5499 20.9213 23.5499 21.425Z" fill="white"/>
<path d="M24.75 7.24998C24.75 6.58923 24.5364 5.97837 24.1744 5.48269C23.8413 5.0265 23.3826 4.66788 22.8491 4.45772L22.811 4.4423C22.7431 4.41409 22.6761 4.38234 22.6107 4.34725C22.5418 4.3102 22.4748 4.26943 22.4105 4.22518C22.0316 3.96419 21.75 3.58178 21.75 3.12498C21.75 2.50366 22.2596 1.98747 22.8668 2.11902C24.6649 2.50857 26.1198 3.8193 26.7126 5.53241C26.8988 6.07059 27 6.64847 27 7.24998C27 7.85149 26.8988 8.42938 26.7126 8.96755C26.1198 10.6807 24.6649 11.9914 22.8668 12.3809C22.2596 12.5125 21.75 11.9963 21.75 11.375C21.75 10.9182 22.0316 10.5358 22.4105 10.2748C22.4748 10.2305 22.5418 10.1898 22.6107 10.1527C22.6761 10.1176 22.7431 10.0859 22.811 10.0577L22.8491 10.0422C23.3826 9.83208 23.8413 9.47346 24.1744 9.01727C24.5364 8.5216 24.75 7.91073 24.75 7.24998Z" fill="white"/>
<path d="M27.75 20.75C27.75 20.8808 27.6813 21.1764 27.3369 21.556C27.2099 21.6959 27.0454 21.8473 26.8331 22.006C26.7942 22.0351 26.7566 22.0658 26.7206 22.0981C26.6838 22.1311 26.6485 22.1657 26.6151 22.2018C26.392 22.4427 26.25 22.7491 26.25 23.081C26.25 23.9393 27.1309 24.5193 27.8447 24.0425C27.96 23.9655 28.0714 23.8866 28.1787 23.8061L28.2217 23.7735C28.5452 23.5267 28.8301 23.2642 29.0718 22.9885C29.6671 22.3095 30 21.5507 30 20.75C30 19.9493 29.6671 19.1905 29.0718 18.5114C28.8301 18.2358 28.5452 17.9733 28.2217 17.7265L28.1787 17.6939C28.0714 17.6134 27.96 17.5345 27.8447 17.4575C27.1309 16.9807 26.25 17.5607 26.25 18.419C26.25 18.7509 26.392 19.0573 26.6151 19.2982C26.6485 19.3343 26.6838 19.3689 26.7206 19.4019C26.7566 19.4342 26.7942 19.4649 26.8331 19.494C27.0454 19.6527 27.2099 19.8041 27.3369 19.944C27.6813 20.3236 27.75 20.6192 27.75 20.75Z" fill="white"/>
<path d="M5.24988 7.24975C5.24988 6.589 5.46349 5.97814 5.82543 5.48246C6.15854 5.02628 6.61728 4.66765 7.15075 4.45749L7.18885 4.44208C7.25679 4.41386 7.3238 4.38211 7.3891 4.34702C7.45805 4.30997 7.52509 4.26921 7.58934 4.22495C7.96823 3.96396 8.24988 3.58155 8.24988 3.12475C8.24988 2.50343 7.74029 1.98724 7.13306 2.11879C5.33495 2.50834 3.88009 3.81907 3.28727 5.53218C3.10104 6.07036 2.99988 6.64824 2.99988 7.24975C2.99988 7.85126 3.10104 8.42915 3.28727 8.96732C3.88009 10.6804 5.33495 11.9912 7.13306 12.3807C7.74029 12.5123 8.24988 11.9961 8.24988 11.3748C8.24988 10.9179 7.96823 10.5355 7.58934 10.2746C7.52509 10.2303 7.45804 10.1895 7.3891 10.1525C7.32379 10.1174 7.25678 10.0856 7.18883 10.0574L7.15075 10.042C6.61728 9.83185 6.15854 9.47323 5.82543 9.01704C5.46349 8.52137 5.24988 7.91051 5.24988 7.24975Z" fill="white"/>
<path d="M2.24988 20.7498C2.24988 20.8805 2.31858 21.1762 2.66299 21.5557C2.78998 21.6957 2.95445 21.8471 3.16677 22.0058C3.20568 22.0349 3.24324 22.0656 3.27925 22.0979C3.31608 22.1309 3.35131 22.1655 3.38471 22.2015C3.60785 22.4425 3.74988 22.7488 3.74988 23.0807C3.74988 23.9391 2.86896 24.5191 2.15519 24.0423C2.03983 23.9653 1.92843 23.8864 1.82116 23.8059L1.77811 23.7733C1.45466 23.5265 1.16973 23.264 0.928062 22.9883C0.332757 22.3093 -0.00012207 21.5505 -0.00012207 20.7498C-0.00012207 19.9491 0.332766 19.1902 0.928085 18.5112C1.16975 18.2356 1.45467 17.9731 1.77812 17.7263L1.82116 17.6937C1.92843 17.6131 2.03983 17.5343 2.15519 17.4572C2.86896 16.9805 3.74988 17.5604 3.74988 18.4188C3.74988 18.7507 3.60785 19.057 3.38471 19.298C3.35131 19.3341 3.31609 19.3687 3.27925 19.4017C3.24324 19.4339 3.20568 19.4647 3.16677 19.4938C2.95445 19.6525 2.78998 19.8038 2.66299 19.9438C2.31858 20.3234 2.24988 20.619 2.24988 20.7498Z" fill="white"/>
</svg>
